<?xml version="1.0" encoding="utf-8"?>
<!-- Generator: Adobe Illustrator 23.0.0, SVG Export Plug-In . SVG Version: 6.00 Build 0)  -->
<svg version="1.1" id="Capa_1" xmlns="http://www.w3.org/2000/svg" xmlns:xlink="http://www.w3.org/1999/xlink" x="0px" y="0px"
	 viewBox="0 0 402.22 402.22" style="enable-background:new 0 0 402.22 402.22;" xml:space="preserve">
<style type="text/css">
	.st0{fill:#DADADA;}
	.st1{fill:#191613;}
	.st2{fill-rule:evenodd;clip-rule:evenodd;fill:#DADADA;}
	.st3{fill-rule:evenodd;clip-rule:evenodd;fill:#191613;}
</style>
<circle class="st0" cx="201.11" cy="201.11" r="201.11"/>
<g>
	<path class="st1" d="M274.75,298.62c7.4-10.7,12.48-25.19,12.2-44.71c0-0.37-0.03-0.81-0.03-1.18c0.03-1.99,0.03-3.98,0-6.07
		c-0.1-5.19-0.54-11.91-1.01-19.63c-0.2-3.85-0.44-7.82-0.67-11.94c0-0.1,0-0.2,0-0.27c-3.61-58.99-11.4-142.8-11.4-142.8h-15.28
		c0,0-1.42,46.04,0,130.49c0,0.1,0.03,0.24,0.03,0.34c0,0.1-0.03,0.17-0.03,0.27c0,0.2,0,0.4,0,0.64c0,0.03-0.03,0.03-0.07,0.07
		c-0.51,6.58-5.94,11.77-12.65,11.77c-6.98,0-12.65-5.63-12.75-12.58c0-0.07,0-0.1,0-0.17c0-0.03,0-0.03,0-0.1l-3.61-130.72h-16.76
		l-2.56,140.77c0,0.13,0.03,0.27,0.03,0.37c0,0.1-0.03,0.2-0.03,0.34c0,0.44-0.07,1.08-0.2,1.82c-0.03,0.27-0.07,0.51-0.13,0.78
		c-0.13,0.51-0.3,1.05-0.51,1.58c-0.1,0.24-0.2,0.47-0.3,0.71c-0.13,0.3-0.3,0.61-0.5,0.91c-2.13,3.78-6.14,6.37-10.79,6.37
		c-6.91,0-12.51-5.6-12.51-12.51c0-0.13,0.03-0.27,0.03-0.44c0-0.17,0-0.27,0-0.27V72.02h-19.8c0,0-0.64,8.8-5.03,147.05
		c0,0.03-0.03,0.07-0.07,0.1c-0.61,7.12-6.51,12.75-13.79,12.75c-7.29,0-13.19-5.63-13.76-12.78c-0.03-0.07-0.1-0.13-0.1-0.13
		l0.03-0.61c-0.03-0.1-0.03-0.24-0.03-0.37c0-0.17,0.03-0.34,0.03-0.54l2.87-145.46h-17.44c0,0-9.48,133.86-10.19,174.63
		c-0.03,2.06-0.03,4.05,0,6c0,0.4-0.03,0.88-0.03,1.25c-0.3,19.52,4.78,34.01,12.18,44.71H274.75z"/>
	<ellipse class="st1" cx="197.43" cy="297.43" rx="82.49" ry="32.77"/>
	<ellipse class="st2" cx="201.11" cy="277.51" rx="104.74" ry="28.18"/>
	<path class="st3" d="M183.04,307.2l8.8-8.8c3.67-3.67,9.63-3.67,13.3,0l8.8,8.8l-15.45,15.45L183.04,307.2z"/>
	<g>
		<circle class="st3" cx="164.73" cy="284.76" r="12.63"/>
		<circle class="st3" cx="230.13" cy="284.76" r="12.63"/>
	</g>
	<path class="st2" d="M198.86,321c-3.46,0-6.68-1.17-9.03-3.26l2.88-3.24c1.48,1.32,3.65,2.16,6.15,2.16c2.5,0,4.67-0.85,6.15-2.16
		l2.88,3.24C205.54,319.82,202.32,321,198.86,321z"/>
</g>
</svg>
